<svg width="294" height="158" viewBox="0 0 294 158" fill="none" xmlns="http://www.w3.org/2000/svg">
<rect width="294" height="158" fill="white"/>
<rect x="123" y="83" width="88" height="75" fill="#8B5CF6"/>
<path d="M131.56 132.312C131.987 132.611 132.883 133.037 134.248 133.592C135.656 134.104 137.299 134.36 139.176 134.36C141.181 134.36 142.696 133.912 143.72 133.016C144.744 132.12 145.427 130.691 145.768 128.728C146.109 126.765 146.28 124.205 146.28 121.048V97.56H156.776V120.664C156.776 124.12 156.584 127.256 156.2 130.072C155.816 132.888 155.027 135.32 153.832 137.368C152.68 139.373 150.931 140.931 148.584 142.04C146.237 143.149 143.101 143.704 139.176 143.704C135.293 143.704 131.987 142.765 129.256 140.888L131.56 132.312ZM184.497 143.384C180.87 143.384 177.777 142.787 175.217 141.592C172.657 140.355 170.566 138.691 168.945 136.6C167.366 134.467 166.193 132.056 165.425 129.368C164.7 126.637 164.337 123.779 164.337 120.792V97.56H174.833V120.792C174.833 123.096 175.132 125.251 175.729 127.256C176.369 129.261 177.393 130.904 178.801 132.184C180.209 133.421 182.108 134.04 184.497 134.04C186.929 134.04 188.849 133.4 190.257 132.12C191.665 130.84 192.668 129.197 193.265 127.192C193.862 125.187 194.161 123.053 194.161 120.792V97.56H204.657V120.792C204.657 124.973 203.953 128.771 202.545 132.184C201.137 135.597 198.94 138.328 195.953 140.376C193.009 142.381 189.19 143.384 184.497 143.384ZM223.286 117.016V143H212.79V97.56H221.11L242.166 124.312V97.56H252.662V143H244.086L223.286 117.016ZM293.288 133.784V143H261.352V97.56H292.712V106.776H271.848V115.608H289.768V124.12H271.848V133.784H293.288Z" fill="white"/>
<line x1="13" y1="5.25" y2="5.25" stroke="white" stroke-width="8.9"/>
<line x1="13" y1="22.85" y2="22.85" stroke="white" stroke-width="9.7"/>
</svg>
