<svg width="104" height="69" viewBox="0 0 104 69" fill="none" xmlns="http://www.w3.org/2000/svg">
<g filter="url(#filter0_d)">
<path d="M8.992 16.896C8.992 14.2933 10.1227 12.1173 12.384 10.368C14.6453 8.61867 17.7173 7.31733 21.6 6.464C21.856 4.672 22.5813 3.24266 23.776 2.176C24.9707 1.10933 26.0373 0.575996 26.976 0.575996C27.9573 0.575996 28.7253 0.85333 29.28 1.408C29.8773 1.92 30.176 2.624 30.176 3.52C30.176 5.61066 28.704 7.06133 25.76 7.872C25.12 19.8187 24.8 25.9413 24.8 26.24C26.08 25.5147 27.5733 24.832 29.28 24.192C31.0293 23.5093 32.2667 23.168 32.992 23.168C33.7173 23.168 34.08 23.3173 34.08 23.616C34.08 24.1707 33.824 24.5333 33.312 24.704C30.5387 25.6 27.68 26.944 24.736 28.736C24.3947 37.7813 24.1813 43.2 24.096 44.992C23.7973 50.0267 22.688 53.8667 20.768 56.512C18.848 59.1573 16.1813 60.48 12.768 60.48C10.08 60.48 7.94667 59.3707 6.368 57.152C4.78933 54.976 4 52.5653 4 49.92C4 46.1653 5.32267 42.624 7.968 39.296C10.6133 35.9253 14.6453 32.4693 20.064 28.928L21.408 8.704C15.9893 9.64267 13.28 11.968 13.28 15.68C13.28 16.7467 13.0453 17.5787 12.576 18.176C12.1493 18.7733 11.5947 19.072 10.912 19.072C9.632 19.072 8.992 18.3467 8.992 16.896ZM13.664 58.176C16.5653 58.176 18.272 54.9547 18.784 48.512C19.04 45.2693 19.2533 42.048 19.424 38.848C19.6373 35.648 19.7867 33.3653 19.872 32C18.1227 33.2373 16.7147 34.304 15.648 35.2C14.5813 36.0533 13.4293 37.1413 12.192 38.464C9.84533 41.1093 8.672 44.3093 8.672 48.064C8.672 51.6907 9.29067 54.464 10.528 56.384C11.3387 57.5787 12.384 58.176 13.664 58.176ZM27.552 2.752C26.6133 2.752 26.0587 3.712 25.888 5.632C27.424 5.16267 28.192 4.544 28.192 3.776C28.192 3.09333 27.9787 2.752 27.552 2.752ZM30.5625 34.432L30.9465 27.264C30.9465 22.6987 31.1598 20.2027 31.5865 19.776C32.0132 19.3493 32.7598 18.7307 33.8265 17.92C34.9358 17.0667 35.7252 16.64 36.1945 16.64C36.7065 16.64 37.0265 16.7253 37.1545 16.896C37.2825 17.0667 37.3465 17.408 37.3465 17.92C37.3465 19.7547 36.9412 21.6107 36.1305 23.488C35.4905 27.4133 35.1705 30.6347 35.1705 33.152C35.1705 35.6693 35.5758 36.928 36.3865 36.928C37.3678 36.928 38.5198 36.0747 39.8425 34.368C41.1652 32.6613 42.4878 30.1227 43.8105 26.752C44.1945 22.4853 44.4932 20.1813 44.7065 19.84C44.9625 19.4987 45.5598 18.88 46.4985 17.984C47.4372 17.088 48.2052 16.64 48.8025 16.64C49.4425 16.64 49.7625 17.4507 49.7625 19.072C49.7625 19.4987 49.6345 20.3307 49.3785 21.568C49.1652 22.8053 48.9092 23.7013 48.6105 24.256C48.1412 25.4507 47.9065 29.1413 47.9065 35.328C47.9065 36.48 48.0345 37.056 48.2905 37.056C49.0158 37.0133 50.0185 36.1173 51.2985 34.368C52.5785 32.576 53.8372 30.2933 55.0745 27.52C56.3545 24.7467 57.1225 23.36 57.3785 23.36C57.6772 23.36 57.8265 23.5307 57.8265 23.872C57.8265 25.0667 57.2078 26.9653 55.9705 29.568C52.5998 36.736 49.7625 40.32 47.4585 40.32C45.7945 40.32 44.5358 39.9787 43.6825 39.296C43.3838 38.9973 43.2345 38.08 43.2345 36.544C43.2345 35.008 43.2985 33.3013 43.4265 31.424C42.0612 34.3253 40.6958 36.544 39.3305 38.08C37.9652 39.5733 36.4292 40.32 34.7225 40.32C33.0585 40.32 31.9492 39.872 31.3945 38.976C30.8398 38.08 30.5625 36.5653 30.5625 34.432ZM58.9295 36.544L58.9935 38.528C58.9935 39.7227 58.6522 40.32 57.9695 40.32C56.9455 40.32 55.9642 40.192 55.0255 39.936C54.0868 39.6373 53.6175 39.2533 53.6175 38.784C53.6175 38.272 53.7242 36.5867 53.9375 33.728C54.1935 30.8267 54.3215 28.6507 54.3215 27.2V23.424C54.3215 21.376 54.5348 20.1387 54.9615 19.712C55.3882 19.2853 56.1348 18.6667 57.2015 17.856C58.3108 17.0453 59.1002 16.64 59.5695 16.64C60.0815 16.64 60.4015 16.7253 60.5295 16.896C60.6575 17.0667 60.7215 17.3867 60.7215 17.856C60.7215 20.1173 60.2948 22.2507 59.4415 24.256C59.2282 26.688 59.1215 28.3733 59.1215 29.312C59.2922 29.056 60.1882 27.6053 61.8095 24.96C63.4308 22.3147 64.7962 20.3733 65.9055 19.136C67.0575 17.8987 68.0815 17.28 68.9775 17.28C69.8735 17.28 70.6628 17.5787 71.3455 18.176C72.0708 18.7733 72.4335 19.52 72.4335 20.416C72.4335 22.2933 72.2202 25.0667 71.7935 28.736C71.4095 32.3627 71.2175 34.6667 71.2175 35.648C71.2175 36.5867 71.3455 37.056 71.6015 37.056C72.3268 37.0133 73.3295 36.1173 74.6095 34.368C75.8895 32.576 77.1482 30.2933 78.3855 27.52C79.6655 24.7467 80.4335 23.36 80.6895 23.36C80.9882 23.36 81.1375 23.5307 81.1375 23.872C81.1375 25.0667 80.5188 26.9653 79.2815 29.568C75.9108 36.736 73.0735 40.32 70.7695 40.32C69.1055 40.32 67.8468 39.9787 66.9935 39.296C66.6948 38.9973 66.5455 38.2293 66.5455 36.992C66.5455 35.712 66.6522 33.664 66.8655 30.848C67.1215 27.9893 67.2495 25.856 67.2495 24.448C67.2495 23.04 66.9935 22.336 66.4815 22.336C66.0122 22.336 64.7322 23.808 62.6415 26.752C60.5508 29.6533 59.4415 31.5093 59.3135 32.32C59.0575 33.8133 58.9295 35.2213 58.9295 36.544ZM85.4955 40.32C83.1062 40.32 81.2075 39.424 79.7995 37.632C78.3915 35.7973 77.6875 33.728 77.6875 31.424C77.6875 26.7733 78.6688 23.2533 80.6315 20.864C82.5942 18.4747 85.1328 17.28 88.2475 17.28C89.6982 17.28 90.8928 17.6853 91.8315 18.496C92.7702 19.264 93.2395 20.3307 93.2395 21.696C93.2395 24.256 92.1515 26.4107 89.9755 28.16C87.8422 29.8667 85.2182 30.7627 82.1035 30.848C82.2742 32.512 82.8288 33.9627 83.7675 35.2C84.7488 36.3947 85.8795 36.992 87.1595 36.992C88.4395 36.992 89.5915 36.6933 90.6155 36.096C91.6395 35.4987 92.5782 34.6453 93.4315 33.536C95.2235 31.1893 96.7595 28.5227 98.0395 25.536C98.3808 24.768 98.6368 24.2133 98.8075 23.872C99.0208 23.5307 99.2342 23.36 99.4475 23.36C99.7035 23.36 99.8315 23.5307 99.8315 23.872C99.8315 26.0053 98.5302 29.2053 95.9275 33.472C93.1115 38.0373 89.6342 40.32 85.4955 40.32ZM82.1035 29.312C84.6208 28.8853 86.4555 28.0747 87.6075 26.88C88.8022 25.6853 89.3995 24.128 89.3995 22.208C89.3995 20.288 88.7808 19.328 87.5435 19.328C86.0502 19.328 84.7915 20.3733 83.7675 22.464C82.7435 24.512 82.1888 26.7947 82.1035 29.312Z" fill="white"/>
</g>
<defs>
<filter id="filter0_d" x="0" y="0.575996" width="103.831" height="67.904" filterUnits="userSpaceOnUse" color-interpolation-filters="sRGB">
<feFlood flood-opacity="0" result="BackgroundImageFix"/>
<feColorMatrix in="SourceAlpha" type="matrix" values="0 0 0 0 0 0 0 0 0 0 0 0 0 0 0 0 0 0 127 0"/>
<feOffset dy="4"/>
<feGaussianBlur stdDeviation="2"/>
<feColorMatrix type="matrix" values="0 0 0 0 0 0 0 0 0 0 0 0 0 0 0 0 0 0 0.25 0"/>
<feBlend mode="normal" in2="BackgroundImageFix" result="effect1_dropShadow"/>
<feBlend mode="normal" in="SourceGraphic" in2="effect1_dropShadow" result="shape"/>
</filter>
</defs>
</svg>
