<?xml version="1.0" standalone="no"?><svg xmlns="http://www.w3.org/2000/svg" viewBox="0 0 1440 320"><path fill="#C4B5FD" fill-opacity="1" d="M0,96L18.5,112C36.9,128,74,160,111,176C147.7,192,185,192,222,165.3C258.5,139,295,85,332,64C369.2,43,406,53,443,69.3C480,85,517,107,554,106.7C590.8,107,628,85,665,74.7C701.5,64,738,64,775,80C812.3,96,849,128,886,144C923.1,160,960,160,997,170.7C1033.8,181,1071,203,1108,213.3C1144.6,224,1182,224,1218,197.3C1255.4,171,1292,117,1329,117.3C1366.2,117,1403,171,1422,197.3L1440,224L1440,320L1421.5,320C1403.1,320,1366,320,1329,320C1292.3,320,1255,320,1218,320C1181.5,320,1145,320,1108,320C1070.8,320,1034,320,997,320C960,320,923,320,886,320C849.2,320,812,320,775,320C738.5,320,702,320,665,320C627.7,320,591,320,554,320C516.9,320,480,320,443,320C406.2,320,369,320,332,320C295.4,320,258,320,222,320C184.6,320,148,320,111,320C73.8,320,37,320,18,320L0,320Z"></path></svg>